<svg width="36" height="37" viewBox="0 0 36 37" fill="none" xmlns="http://www.w3.org/2000/svg">
<circle cx="18" cy="18.3262" r="18" fill="#333333"/>
<path d="M21.3956 10.3262H14.6035C12.0608 10.3262 10 12.4105 10 14.9822V21.6702C10 24.2409 12.0608 26.3262 14.6035 26.3262H21.3965C23.9392 26.3262 26 24.2419 26 21.6702V14.9822C26 12.4105 23.9392 10.3262 21.3965 10.3262H21.3956ZM18.0864 22.0483C16.1336 22.0483 14.5509 20.4475 14.5509 18.4725C14.5509 16.4974 16.1336 14.8967 18.0864 14.8967C20.0392 14.8967 21.6219 16.4974 21.6219 18.4725C21.6219 20.4475 20.0392 22.0483 18.0864 22.0483ZM22.7444 14.6525C22.2184 14.6525 21.791 14.2212 21.791 13.6882C21.791 13.1553 22.2174 12.724 22.7444 12.724C23.2713 12.724 23.6978 13.1553 23.6978 13.6882C23.6978 14.2212 23.2713 14.6525 22.7444 14.6525Z" fill="white"/>
</svg>
